# xmcd CD database file
#
# Track frame offsets:
#	182
#	16172
#	35705
#	52152
#	65937
#	80932
#	95610
#	107342
#	122440
#	136280
#
# Disc length: 2048 seconds
#
# Revision: 0
# Processed by: cddbd v1.4PL0 Copyright (c) Steve Scherf et al.
# Submitted via: CDex 1.40Beta9
#
DISCID=8c07fe0a
DTITLE=Jeff Carson - Real Life
DYEAR=1900
DGENRE=Country
TTITLE0=Real Life (I Never Was The Same Again)
TTITLE1=My One And Only Love
TTITLE2=Until We Fall Back In Love Again
TTITLE3=I Almost Never Loved You
TTITLE4=Shine On
TTITLE5=Where Did I Go So Right
TTITLE6=What's Not To Love
TTITLE7=Divine Intervention
TTITLE8=It Wouldn't Kill Me
TTITLE9=Scars And All
EXTD=ID3G: 2
EXTT0=
EXTT1=
EXTT2=
EXTT3=
EXTT4=
EXTT5=
EXTT6=
EXTT7=
EXTT8=
EXTT9=
PLAYORDER=
